<svg xmlns="http://www.w3.org/2000/svg" xmlns:svg="http://www.w3.org/2000/svg" id="svg4100" width="448.465" height="230.186" version="1.1" viewBox="0 0 118.656 60.903"><metadata id="metadata4097"/><g id="layer1" transform="translate(-185.98056,164.8869)"><flowRoot style="font-style:normal;font-variant:normal;font-weight:400;font-stretch:normal;font-size:40px;line-height:1.25;font-family:'Liberation Serif';-inkscape-font-specification:'Liberation Serif';letter-spacing:0;word-spacing:0;fill:#d6d3d1;fill-opacity:1;stroke:none" id="flowRoot3982" transform="matrix(0.73660175,0,0,0.67216044,-23.953198,-578.33299)" xml:space="preserve"><flowRegion style="fill:#d6d3d1;fill-opacity:1" id="flowRegion3984"><rect style="fill:#d6d3d1;fill-opacity:1" id="rect3986" width="385.878" height="170.716" x="340.421" y="659.87"/></flowRegion><flowPara style="font-style:italic;font-variant:normal;font-weight:400;font-stretch:normal;font-family:FreeSerif;-inkscape-font-specification:'FreeSerif Italic';fill:#d6d3d1;fill-opacity:1" id="flowPara3988">Sharry</flowPara></flowRoot><path id="path11381" d="m 186.85001,-148.70852 5.77106,2.02005 9.23387,0.86636 h 3.17484 l 5.33854,-1.01002 -2.30847,8.51227 -3.60691,2.88531 -3.75168,1.29844 -6.49332,-0.7205 -4.7606,-4.7617 -3.03018,-7.647 z" style="fill:#f30;fill-rule:evenodd;stroke:#000;stroke-width:.110506px"/><path id="path14428" d="m 186.41716,-148.13057 3.60703,9.66594 c 0,0 0.42765,-0.37682 -0.28843,-3.17372 -1.36585,-5.33302 -0.86526,-4.07546 3.89534,-3.3185 4.78601,0.76139 3.75167,0.78681 8.22384,0.57685 4.61804,-0.2166 6.78175,-1.44211 6.78175,-1.44211 l -14.42875,-0.57794 z" style="fill:#fff;fill-opacity:.2625;fill-rule:evenodd;stroke-width:.110506"/><path id="path1387" d="m 189.2849,-162.7505 c 0.0254,1.45868 -0.19228,2.87868 -0.51054,4.28984 -0.73597,2.98587 -1.36939,5.99384 -1.34596,9.10679 0.052,2.82895 0.91941,5.54739 1.95706,8.09897 1.12164,2.91183 3.26213,4.7838 5.8546,5.9187 2.13277,0.57463 4.75728,1.06085 6.90993,0.27074 0.074,-0.0376 0.14919,-0.0752 0.22323,-0.11162 l -1.31834,1.157 c -0.0751,0.0298 -0.15139,0.0597 -0.22654,0.0906 -2.24658,0.51716 -4.73517,0.30057 -6.92208,-0.41109 -2.59579,-1.17136 -4.79927,-3.10521 -5.90765,-6.04356 -1.00858,-2.5781 -1.97673,-5.29876 -2.01806,-8.1465 0.01,-3.124 0.62934,-6.14854 1.34353,-9.15541 0.305,-1.37579 0.53751,-2.76485 0.41562,-4.18706 z" style="fill:#78716c;stroke-width:.110506"/><path id="path1389" d="m 209.26215,-162.80354 c -0.69508,1.45867 -0.62878,3.0146 -0.31052,4.42576 0.73707,2.98587 1.36917,5.99494 1.34596,9.10679 -0.0519,2.83005 -0.91941,5.54739 -1.95706,8.09897 -1.12163,2.91183 -3.26213,4.7838 -5.8546,5.9187 -2.13276,0.57463 -4.75728,1.06085 -6.90993,0.27184 -0.074,-0.0376 -0.14918,-0.0751 -0.22322,-0.11272 l 1.31833,1.157 c 0.0762,0.0298 0.1514,0.0608 0.22654,0.0906 2.24658,0.51717 4.73518,0.30058 6.92209,-0.41108 2.59689,-1.17025 4.79927,-3.10521 5.90764,-6.04356 1.00892,-2.5781 1.97695,-5.29876 2.01784,-8.1465 -0.01,-3.124 -0.62878,-6.14854 -1.34375,-9.15541 -0.305,-1.3758 -0.96361,-4.15502 0.71055,-5.3739 z" style="fill:#78716c;stroke-width:.110506"/><path id="path1399" d="m 208.8566,-161.79131 c -1.3979,0.18013 -3.13837,0.76028 -4.49428,1.18794 -2.88199,0.82548 -5.7231,1.9007 -8.71781,2.00568 -2.08635,-0.0718 -4.24342,-0.20002 -6.24579,-0.91941 -0.69287,-0.26742 -0.59673,-0.86968 -1.15036,-1.39348 -0.0928,-0.34367 -0.27737,-0.7868 -0.3702,-0.89178 l 0.84869,-0.30942 c 0.0895,0.0984 0.14807,0.36688 0.23869,0.46523 0.53927,0.50833 1.15147,0.81885 1.82445,1.08186 1.9659,0.74149 4.10308,0.86526 6.16181,0.90062 2.96156,-0.12708 5.7883,-1.16694 8.63935,-1.99463 1.40895,-0.45971 2.83779,-1.07301 4.30089,-1.23325 z" style="fill:#78716c;stroke-width:.110506;fill-opacity:1"/><path id="path1401" d="m 187.80523,-161.96259 c 1.2675,-1.2443 7.01491,-2.28969 9.65932,-2.69745 2.6444,-0.40666 6.87236,-0.26743 9.20955,0.42434 2.27974,0.67409 1.82556,0.60226 3.69864,0.98682 0.27847,0.0652 0.5459,0.1746 0.81553,0.27295 l -1.4189,1.06527 c -0.25858,-0.095 -0.51606,-0.19891 -0.78348,-0.2641 -1.83882,-0.39562 -0.9393,-0.77244 -3.63454,-1.3537 -2.69634,-0.58016 -6.9674,-0.6111 -9.58528,-0.0464 -2.62451,0.56579 -6.31099,1.51061 -7.75199,2.13828 z" style="fill:#78716c;stroke-width:.110506"/><path id="path1423" d="m 199.1575,-115.92143 c -1.52499,0.22101 -3.15384,0.58789 -4.76281,0.97466 -3.28092,1.00008 -3.89091,0.68183 -5.11089,3.85997 -0.26964,4.27327 4.83242,5.55513 8.66918,6.13418 2.21233,0.16908 4.73849,-0.0608 7.49672,-0.90393 0.53374,-0.16355 2.18912,-0.8509 1.63549,-0.60558 -2.36151,1.04318 0.28731,-0.44754 1.24871,-1.40895 2.66761,-3.0599 1.60455,-5.16172 0.17239,-6.34193 -1.6819,-0.97908 -3.55608,-1.77472 -5.61149,-2.34493 l 2.04215,-1.05091 c 1.93164,0.70171 3.86218,1.41668 5.49767,2.43555 1.47083,1.24098 2.57479,3.3638 -0.14366,6.54415 -4.42686,4.53517 -10.66271,4.78049 -14.12154,4.6081 -3.87986,-0.65199 -8.99518,-1.93164 -8.88291,-6.19164 1.29447,-3.62681 6.02191,-4.98271 9.04756,-5.80046 1.66974,-0.39892 3.37927,-0.83432 4.95729,-1.04317 z" style="fill:#78716c;stroke-width:.110506"/><path id="path1425" d="m 195.839,-134.98811 c 0.71056,1.28739 0.96141,2.65656 1.27745,4.13181 0.72492,4.16829 1.58024,8.33104 2.12613,12.53689 0.14477,1.6587 0.3271,3.38259 0.0508,5.03465 -0.15913,0.58016 -0.21438,1.1802 -0.24091,1.78246 l -2.1858,1.32718 c -0.75697,0.16576 0.75033,-1.70511 0.90836,-2.29742 0.31383,-1.64212 0.14476,-3.35496 0.0497,-5.01586 -0.45528,-4.21691 -1.28407,-8.39403 -2.07751,-12.54242 -0.3072,-1.29623 -0.70392,-3.17594 -1.3117,-4.16054 z" style="fill:#78716c;stroke-width:.110506"/><path id="path1427" d="m 201.6494,-134.54388 c -0.74702,1.97253 -1.2244,4.14729 -1.65538,6.25242 -0.55805,3.31629 -0.66745,6.74418 -0.40113,10.10577 0.27405,1.60344 0.0442,3.20246 0.0199,4.81363 0.007,0.61552 -0.11603,1.19899 -0.0619,1.80567 0.1547,0.18012 0.74481,0.29726 1.16031,0.55363 l -1.43105,0.94814 c -0.35031,0.17571 -2.34052,0.15913 -2.47312,-0.15139 -0.10941,-0.65198 1.27413,-1.64985 1.31502,-2.31289 0.0298,-1.61338 0.24532,-3.21572 0.0376,-4.82468 -0.25638,-3.39806 -0.10388,-6.85137 0.46302,-10.20191 0.39671,-1.99463 0.80337,-4.31636 1.48078,-6.11097 z" style="fill:#78716c;stroke-width:.110506"/><path id="path12910" d="m 187.71572,-149.1406 7.35858,-1.15478 7.50225,0.14476 5.91648,1.01002 2.16371,1.15368 -1.58687,1.29845 -6.06014,1.15478 -9.52229,-1.01002 -6.20457,-1.44321 z" style="fill:#f30;fill-opacity:.70833;fill-rule:evenodd;stroke:#000;stroke-width:.110506px"/><path id="path1433" d="m 187.21236,-149.00357 c 0.72658,0.45197 1.56642,0.67409 2.36538,0.93156 3.51409,1.26972 7.10332,1.78136 10.77874,1.80235 2.32394,0.004 5.71316,0.44203 6.97071,-0.0453 l 3.70969,-1.43768 -0.26301,1.13268 c -1.42663,0.47849 -0.10056,0.50722 -3.83345,1.16915 -2.38582,0.27958 -5.86565,0.20996 -8.19069,0.0398 -3.692,-0.4133 -6.93314,-0.48734 -10.48259,-1.65538 -0.8226,-0.21659 -1.29303,-0.40887 -2.06226,-0.73266 z" style="fill:#78716c;stroke-width:.110506"/><path id="path1439" d="m 197.18607,-136.56945 c 1.66864,0.0519 3.41795,0.0497 5.16947,0.0453 4.68323,-0.79564 0.34477,1.1371 -1.02329,0.71166 -0.68956,-0.45087 -2.59468,-0.30611 -2.48638,-1.17689 0.87078,-0.37904 12.77337,-3.82903 5.03907,-1.19789 -0.33926,-0.14476 -1.19236,-0.14697 -0.17239,-0.8752 0.37793,-0.29505 0.43429,-0.51164 0.84647,-0.85753 l 2.85547,-0.90173 c -0.43428,0.37241 -0.40445,0.55916 -0.93377,0.94704 -0.17349,0.25969 0.0718,0.568 0.27958,0.78017 -1.42553,0.51496 -11.82523,3.62349 -5.00039,1.14705 0,0.79454 1.82887,0.65751 2.54716,1.06417 1.85871,0.52159 -4.85121,2.03884 -4.79264,1.40122 -1.77804,-0.003 -3.5605,-0.004 -5.41921,0.0464 z" style="fill:#000;fill-opacity:.44583;stroke-width:.110506"/><path id="path1341" d="m 187.49382,-148.41457 c 0.76559,-0.36688 1.62311,-0.49176 2.44307,-0.65751 3.61796,-0.86084 7.23592,-0.9614 10.89366,-0.56248 2.31068,0.2608 5.7231,0.21107 6.92762,0.83985 l 3.54834,1.85207 -0.15139,-1.15699 c -1.37249,-0.63762 -0.0497,-0.51496 -3.69863,-1.59902 -2.34494,-0.54922 -5.81261,-0.87742 -8.14097,-0.97356 -3.71189,-0.01 -6.94198,-0.305 -10.58536,0.45087 -0.83874,0.12155 -1.3253,0.25968 -2.12149,0.49396 z" style="fill:#78716c;stroke-width:.110506"/><path id="path2104" d="m 207.95708,-114.60751 c -1.79683,0.39008 -3.5826,0.91609 -5.35291,1.44431 -1.71836,0.56137 -3.43341,1.14152 -5.19598,1.52166 l 1.90733,1.42774 c 1.69626,-0.5238 3.39032,-1.05975 5.07995,-1.6156 1.80125,-0.52158 3.6467,-1.09953 5.50762,-1.24429 z" style="fill:#000;fill-opacity:.34167;stroke-width:.110506"/></g></svg>